<?xml version="1.0" standalone="no"?> <!DOCTYPE svg PUBLIC "-//W3C//DTD SVG 1.0//EN" "http://www.w3.org/TR/2001/REC-SVG-20010904/DTD/svg10.dtd" > <svg xmlns="http://www.w3.org/2000/svg" width="100%" height="100%">
<defs >
<font horiz-adv-x="512" ><font-face
    font-family="Vermin Vibes 1989"
    units-per-em="1024"
    panose-1="0 0 4 0 0 0 0 0 0 0"
    ascent="640"
    descent="-256"
    alphabetic="0" />
<missing-glyph horiz-adv-x="64" d="M320 90V192H218V90H320ZM421 209V311H218V209H421ZM320 328V430H218V328H320ZM421 447V548H320Q277 548 248 519Q218 488 218 447H421ZM0 0V640H640V0H0Z" />
<glyph unicode=" " glyph-name="null" horiz-adv-x="256" />
<glyph unicode="!" glyph-name="null" horiz-adv-x="192" d="M0 0V128H128V0H0ZM0 192V512H128V192H0Z" />
<glyph unicode="&quot;" glyph-name="null" horiz-adv-x="384" d="M0 320V512H128V320H0ZM192 320V512H320V320H192Z" />
<glyph unicode="#" glyph-name="null" horiz-adv-x="576" d="M320 192V320H192V192H320ZM64 0V64H0V192H64V320H0V448H64V512H192V448H320V512H448V448H512V320H448V192H512V64H448V0H320V64H192V0H64Z" />
<glyph unicode="$" glyph-name="null" horiz-adv-x="576" d="M384 128V192H320V128H384ZM192 320V384H128V320H192ZM192 -64V0H0V64H64V128H192V192H0V512H192V576H320V512H512V448H448V384H320V320H512V0H320V-64H192Z" />
<glyph unicode="%" glyph-name="null" horiz-adv-x="576" d="M384 0V128H512V0H384ZM0 384V512H128V384H0ZM-64 0V64H0V128H64V192H128V256H192V320H256V384H320V448H384V512H576V448H512V384H448V320H384V256H320V192H256V128H192V64H128V0H-64Z" />
<glyph unicode="&apos;" glyph-name="null" horiz-adv-x="192" d="M0 320V512H128V320H0Z" />
<glyph unicode="(" glyph-name="null" horiz-adv-x="320" d="M0 0V512H256V384H128V128H256V0H0Z" />
<glyph unicode=")" glyph-name="null" horiz-adv-x="320" d="M0 0V128H128V384H0V512H256V0H0Z" />
<glyph unicode="*" glyph-name="null" horiz-adv-x="576" d="M448 -64V0H384V64H320V0H192V64H128V0H-64V64H0V128H64V192H0V320H64V384H0V576H64V512H128V448H192V512H320V448H384V512H576V448H512V384H448V320H512V192H448V128H512V-64H448Z" />
<glyph unicode="+" glyph-name="null" horiz-adv-x="448" d="M128 64V192H0V320H128V448H256V320H384V192H256V64H128Z" />
<glyph unicode="," glyph-name="null" horiz-adv-x="192" d="M0 -64V128H128V0H64V-64H0Z" />
<glyph unicode="-" glyph-name="null" horiz-adv-x="448" d="M0 192V320H384V192H0Z" />
<glyph unicode="." glyph-name="null" horiz-adv-x="192" d="M0 0V128H128V0H0Z" />
<glyph unicode="/" glyph-name="null" horiz-adv-x="576" d="M-64 0V64H0V128H64V192H128V256H192V320H256V384H320V448H384V512H576V448H512V384H448V320H384V256H320V192H256V128H192V64H128V0H-64Z" />
<glyph unicode="0" glyph-name="null" horiz-adv-x="576" d="M192 192V320H320V192H192ZM384 128V384H128V128H384ZM0 0V512H512V0H0Z" />
<glyph unicode="1" glyph-name="null" horiz-adv-x="192" d="M0 0V448H64V512H128V0H0Z" />
<glyph unicode="2" glyph-name="null" horiz-adv-x="576" d="M0 0V320H384V384H0V512H512V192H128V128H512V0H0Z" />
<glyph unicode="3" glyph-name="null" horiz-adv-x="576" d="M0 0V128H384V192H0V320H384V384H0V512H512V0H0Z" />
<glyph unicode="4" glyph-name="null" horiz-adv-x="576" d="M384 0V192H0V512H64V448H128V320H384V512H512V0H384Z" />
<glyph unicode="5" glyph-name="null" horiz-adv-x="576" d="M0 0V128H384V192H0V512H512V384H128V320H512V0H0Z" />
<glyph unicode="6" glyph-name="null" horiz-adv-x="576" d="M384 128V192H128V128H384ZM0 0V512H512V384H128V320H512V0H0Z" />
<glyph unicode="7" glyph-name="null" horiz-adv-x="576" d="M0 0V192H64V256H128V320H192V384H0V512H512V448H448V384H384V320H320V256H256V192H192V128H128V64H64V0H0Z" />
<glyph unicode="8" glyph-name="null" horiz-adv-x="576" d="M384 128V192H128V128H384ZM384 320V384H128V320H384ZM0 0V512H512V0H0Z" />
<glyph unicode="9" glyph-name="null" horiz-adv-x="576" d="M384 320V384H128V320H384ZM0 0V128H384V192H0V512H512V0H0Z" />
<glyph unicode=":" glyph-name="null" horiz-adv-x="192" d="M0 64V192H128V64H0ZM0 320V448H128V320H0Z" />
<glyph unicode=";" glyph-name="null" horiz-adv-x="192" d="M0 0V192H128V64H64V0H0ZM0 320V448H128V320H0Z" />
<glyph unicode="=" glyph-name="null" horiz-adv-x="448" d="M0 64V192H384V64H0ZM0 320V448H384V320H0Z" />
<glyph unicode="?" glyph-name="null" horiz-adv-x="576" d="M0 0V128H128V0H0ZM0 192V256H64V320H384V384H0V512H512V192H0Z" />
<glyph unicode="@" glyph-name="null" horiz-adv-x="576" d="M128 0V64H448V0H128ZM64 64V128H128V64H64ZM128 192V320H192V192H128ZM0 128V384H64V128H0ZM192 128V192H320V320H192V384H384V192H448V384H512V128H192ZM64 384V448H128V384H64ZM384 384V448H448V384H384ZM128
448V512H384V448H128Z" />
<glyph unicode="A" glyph-name="null" horiz-adv-x="576" d="M0 0V64H64V128H128V192H192V256H256V320H320V384H384V448H448V512H512V0H384V192H320V128H256V64H192V0H0Z" />
<glyph unicode="B" glyph-name="null" horiz-adv-x="576" d="M192 64V128H256V192H128V64H192ZM192 320V384H128V320H192ZM0 -256V512H512V448H448V384H384V320H576V256H512V192H448V128H384V64H320V0H256V-64H192V-128H128V-192H64V-256H0Z" />
<glyph unicode="C" glyph-name="null" horiz-adv-x="576" d="M0 0V512H512V384H128V128H512V0H0Z" />
<glyph unicode="D" glyph-name="null" horiz-adv-x="576" d="M192 64V128H256V192H320V256H384V384H128V64H192ZM0 -256V512H512V192H448V128H384V64H320V0H256V-64H192V-128H128V-192H64V-256H0Z" />
<glyph unicode="E" glyph-name="null" horiz-adv-x="576" d="M0 0V512H512V384H128V320H512V192H128V128H512V0H0Z" />
<glyph unicode="F" glyph-name="null" horiz-adv-x="576" d="M0 -128V512H512V384H128V320H512V192H128V-64H64V-128H0Z" />
<glyph unicode="G" glyph-name="null" horiz-adv-x="576" d="M384 -128V0H0V512H512V384H128V128H384V256H448V320H512V-64H448V-128H384Z" />
<glyph unicode="H" glyph-name="null" horiz-adv-x="576" d="M0 -128V512H128V320H384V576H448V640H512V0H384V192H128V-64H64V-128H0Z" />
<glyph unicode="I" glyph-name="null" horiz-adv-x="192" d="M0 0V512H128V0H0Z" />
<glyph unicode="J" glyph-name="null" horiz-adv-x="576" d="M0 -256V192H128V64H192V128H256V192H320V256H384V512H512V192H448V128H384V64H320V0H256V-64H192V-128H128V-192H64V-256H0Z" />
<glyph unicode="K" glyph-name="null" horiz-adv-x="576" d="M448 -128V-64H384V0H320V64H256V128H192V192H128V0H0V512H128V320H192V384H256V448H320V512H512V448H448V384H384V320H320V192H384V128H448V64H512V-128H448Z" />
<glyph unicode="L" glyph-name="null" horiz-adv-x="576" d="M0 0V512H128V128H512V0H0Z" />
<glyph unicode="M" glyph-name="null" horiz-adv-x="576" d="M0 0V512H64V448H128V384H192V320H320V384H384V448H448V512H512V0H384V192H320V128H192V192H128V0H0Z" />
<glyph unicode="N" glyph-name="null" horiz-adv-x="576" d="M448 -64V0H384V64H320V128H256V192H192V256H128V0H0V576H64V512H128V448H192V384H256V320H320V256H384V512H512V-64H448Z" />
<glyph unicode="O" glyph-name="null" horiz-adv-x="576" d="M384 128V384H128V128H384ZM0 0V512H512V0H0Z" />
<glyph unicode="P" glyph-name="null" horiz-adv-x="576" d="M0 -128V320H384V384H0V512H512V192H128V-64H64V-128H0Z" />
<glyph unicode="Q" glyph-name="null" horiz-adv-x="576" d="M384 128V384H128V128H192V256H256V192H320V128H384ZM256 -128V-64H192V0H0V512H512V0H320V-128H256Z" />
<glyph unicode="R" glyph-name="null" horiz-adv-x="576" d="M448 -128V-64H384V0H320V64H256V128H192V192H128V0H0V320H384V384H0V512H512V192H384V128H448V64H512V-128H448Z" />
<glyph unicode="S" glyph-name="null" horiz-adv-x="576" d="M0 0V128H384V192H0V512H512V384H128V320H512V0H0Z" />
<glyph unicode="T" glyph-name="null" horiz-adv-x="576" d="M192 0V384H0V512H512V384H320V0H192Z" />
<glyph unicode="U" glyph-name="null" horiz-adv-x="576" d="M0 0V512H128V128H384V512H512V0H0Z" />
<glyph unicode="V" glyph-name="null" horiz-adv-x="576" d="M448 0V64H384V128H320V192H256V256H192V320H128V384H64V448H0V512H192V448H256V384H320V320H384V512H512V0H448Z" />
<glyph unicode="W" glyph-name="null" horiz-adv-x="576" d="M0 0V512H128V320H192V384H320V320H384V512H512V0H448V64H384V128H320V192H192V128H128V64H64V0H0Z" />
<glyph unicode="X" glyph-name="null" horiz-adv-x="576" d="M448 -64V0H384V64H320V128H192V64H128V0H-64V64H0V128H64V192H128V320H64V384H0V576H64V512H128V448H192V384H320V448H384V512H576V448H512V384H448V320H384V192H448V128H512V-64H448Z" />
<glyph unicode="Y" glyph-name="null" horiz-adv-x="576" d="M192 0V256H128V320H64V384H0V576H64V512H128V448H192V384H320V448H384V512H576V448H512V384H448V320H384V256H320V0H192Z" />
<glyph unicode="Z" glyph-name="null" horiz-adv-x="576" d="M-64 0V64H0V128H64V192H128V256H192V320H256V384H0V512H576V448H512V384H448V320H384V256H320V192H256V128H512V0H-64Z" />
<glyph unicode="[" glyph-name="null" horiz-adv-x="320" d="M0 0V512H256V384H128V128H256V0H0Z" />
<glyph unicode="\" glyph-name="null" horiz-adv-x="576" d="M384 0V64H320V128H256V192H192V256H128V320H64V384H0V448H-64V512H128V448H192V384H256V320H320V256H384V192H448V128H512V64H576V0H384Z" />
<glyph unicode="]" glyph-name="null" horiz-adv-x="320" d="M0 0V128H128V384H0V512H256V0H0Z" />
<glyph unicode="_" glyph-name="null" horiz-adv-x="576" d="M0 0V128H512V0H0Z" />
<glyph unicode="a" glyph-name="null" horiz-adv-x="576" d="M0 0V512H64V448H128V384H192V320H256V256H320V192H384V128H448V64H512V0H320V64H256V128H192V192H128V0H0Z" />
<glyph unicode="b" glyph-name="null" horiz-adv-x="576" d="M192 64V128H256V192H128V64H192ZM192 320V384H128V320H192ZM0 -256V512H512V448H448V384H384V320H576V256H512V192H448V128H384V64H320V0H256V-64H192V-128H128V-192H64V-256H0Z" />
<glyph unicode="c" glyph-name="null" horiz-adv-x="576" d="M0 0V512H512V384H128V128H512V0H0Z" />
<glyph unicode="d" glyph-name="null" horiz-adv-x="576" d="M192 64V128H256V192H320V256H384V384H128V64H192ZM0 -256V512H512V192H448V128H384V64H320V0H256V-64H192V-128H128V-192H64V-256H0Z" />
<glyph unicode="e" glyph-name="null" horiz-adv-x="576" d="M0 0V128H512V0H0ZM0 192V320H512V192H0ZM0 384V512H512V384H0Z" />
<glyph unicode="f" glyph-name="null" horiz-adv-x="576" d="M0 -128V512H512V384H128V320H512V192H128V-64H64V-128H0Z" />
<glyph unicode="g" glyph-name="null" horiz-adv-x="576" d="M384 -128V0H0V512H512V384H128V128H384V256H448V320H512V-64H448V-128H384Z" />
<glyph unicode="h" glyph-name="null" horiz-adv-x="576" d="M0 -128V512H128V320H384V576H448V640H512V0H384V192H128V-64H64V-128H0Z" />
<glyph unicode="i" glyph-name="null" horiz-adv-x="192" d="M0 0V512H128V0H0Z" />
<glyph unicode="j" glyph-name="null" horiz-adv-x="576" d="M0 -256V192H128V64H192V128H256V192H320V256H384V512H512V192H448V128H384V64H320V0H256V-64H192V-128H128V-192H64V-256H0Z" />
<glyph unicode="k" glyph-name="null" horiz-adv-x="576" d="M448 -128V-64H384V0H320V64H256V128H192V192H128V0H0V512H128V320H192V384H256V448H320V512H512V448H448V384H384V320H320V192H384V128H448V64H512V-128H448Z" />
<glyph unicode="l" glyph-name="null" horiz-adv-x="576" d="M0 0V512H128V128H512V0H0Z" />
<glyph unicode="m" glyph-name="null" horiz-adv-x="576" d="M0 0V512H64V448H128V384H192V320H320V384H384V448H448V512H512V0H384V192H320V128H192V192H128V0H0Z" />
<glyph unicode="n" glyph-name="null" horiz-adv-x="576" d="M448 -64V0H384V64H320V128H256V192H192V256H128V0H0V576H64V512H128V448H192V384H256V320H320V256H384V512H512V-64H448Z" />
<glyph unicode="o" glyph-name="null" horiz-adv-x="576" d="M384 128V384H128V128H384ZM0 0V512H512V0H0Z" />
<glyph unicode="p" glyph-name="null" horiz-adv-x="576" d="M0 -128V320H384V384H0V512H512V192H128V-64H64V-128H0Z" />
<glyph unicode="q" glyph-name="null" horiz-adv-x="576" d="M384 128V384H128V128H192V256H256V192H320V128H384ZM256 -128V-64H192V0H0V512H512V0H320V-128H256Z" />
<glyph unicode="r" glyph-name="null" horiz-adv-x="576" d="M448 -128V-64H384V0H320V64H256V128H192V192H128V0H0V320H384V384H0V512H512V192H384V128H448V64H512V-128H448Z" />
<glyph unicode="s" glyph-name="null" horiz-adv-x="576" d="M0 0V128H384V192H0V512H512V384H128V320H512V0H0Z" />
<glyph unicode="t" glyph-name="null" horiz-adv-x="576" d="M192 0V384H0V512H512V384H320V0H192Z" />
<glyph unicode="u" glyph-name="null" horiz-adv-x="576" d="M0 0V512H128V128H384V512H512V0H0Z" />
<glyph unicode="v" glyph-name="null" horiz-adv-x="576" d="M0 0V512H128V320H192V384H256V448H320V512H512V448H448V384H384V320H320V256H256V192H192V128H128V64H64V0H0Z" />
<glyph unicode="w" glyph-name="null" horiz-adv-x="576" d="M0 0V512H128V320H192V384H320V320H384V512H512V0H448V64H384V128H320V192H192V128H128V64H64V0H0Z" />
<glyph unicode="x" glyph-name="null" horiz-adv-x="576" d="M448 -64V0H384V64H320V128H192V64H128V0H-64V64H0V128H64V192H128V320H64V384H0V576H64V512H128V448H192V384H320V448H384V512H576V448H512V384H448V320H384V192H448V128H512V-64H448Z" />
<glyph unicode="y" glyph-name="null" horiz-adv-x="576" d="M192 0V256H128V320H64V384H0V576H64V512H128V448H192V384H320V448H384V512H576V448H512V384H448V320H384V256H320V0H192Z" />
<glyph unicode="z" glyph-name="null" horiz-adv-x="576" d="M-64 0V64H0V128H64V192H128V256H192V320H256V384H0V512H576V448H512V384H448V320H384V256H320V192H256V128H512V0H-64Z" />
<glyph unicode="{" glyph-name="null" horiz-adv-x="320" d="M0 0V192H-64V320H0V512H256V384H128V128H256V0H0Z" />
<glyph unicode="}" glyph-name="null" horiz-adv-x="320" d="M0 0V128H128V384H0V512H256V320H320V192H256V0H0Z" />
</font>
</defs>
</svg>
